<?xml version="1.0" encoding="iso-8859-1"?>
<!-- Generator: Adobe Illustrator 19.0.0, SVG Export Plug-In . SVG Version: 6.00 Build 0)  -->
<svg version="1.1" id="Capa_1" xmlns="http://www.w3.org/2000/svg" xmlns:xlink="http://www.w3.org/1999/xlink" x="0px" y="0px"
	 viewBox="0 0 480.026 480.026" style="enable-background:new 0 0 480.026 480.026;" xml:space="preserve">
<g>
	<g>
		<rect x="96.012" y="48.013" width="96" height="16"/>
	</g>
</g>
<g>
	<g>
		<rect x="96.012" y="80.013" width="96" height="16"/>
	</g>
</g>
<g>
	<g>
		<rect x="208.012" y="48.013" width="16" height="16"/>
	</g>
</g>
<g>
	<g>
		<rect x="240.012" y="48.013" width="16" height="16"/>
	</g>
</g>
<g>
	<g>
		<rect x="272.012" y="48.013" width="16" height="16"/>
	</g>
</g>
<g>
	<g>
		<rect x="208.012" y="80.013" width="16" height="16"/>
	</g>
</g>
<g>
	<g>
		<rect x="240.012" y="80.013" width="16" height="16"/>
	</g>
</g>
<g>
	<g>
		<rect x="272.012" y="80.013" width="16" height="16"/>
	</g>
</g>
<g>
	<g>
		<path d="M352.012,48.013c-13.255,0-24,10.745-24,24s10.745,24,24,24s24-10.745,24-24S365.267,48.013,352.012,48.013z
			 M352.012,80.013c-4.418,0-8-3.582-8-8s3.582-8,8-8s8,3.582,8,8S356.431,80.013,352.012,80.013z"/>
	</g>
</g>
<g>
	<g>
		<path d="M328.012,320.013c-13.255,0-24,10.745-24,24s10.745,24,24,24v-16c-4.418,0-8-3.582-8-8s3.582-8,8-8s8,3.582,8,8h16
			C352.012,330.758,341.267,320.013,328.012,320.013z"/>
	</g>
</g>
<g>
	<g>
		<rect x="96.012" y="184.013" width="96" height="16"/>
	</g>
</g>
<g>
	<g>
		<rect x="96.012" y="216.013" width="96" height="16"/>
	</g>
</g>
<g>
	<g>
		<rect x="208.012" y="184.013" width="16" height="16"/>
	</g>
</g>
<g>
	<g>
		<rect x="240.012" y="184.013" width="16" height="16"/>
	</g>
</g>
<g>
	<g>
		<rect x="272.012" y="184.013" width="16" height="16"/>
	</g>
</g>
<g>
	<g>
		<rect x="208.012" y="216.013" width="16" height="16"/>
	</g>
</g>
<g>
	<g>
		<rect x="240.012" y="216.013" width="16" height="16"/>
	</g>
</g>
<g>
	<g>
		<rect x="272.012" y="216.013" width="16" height="16"/>
	</g>
</g>
<g>
	<g>
		<circle cx="312.012" cy="208.013" r="8"/>
	</g>
</g>
<g>
	<g>
		<circle cx="376.012" cy="208.013" r="8"/>
	</g>
</g>
<g>
	<g>
		<circle cx="344.012" cy="208.013" r="8"/>
	</g>
</g>
<g>
	<g>
		<rect x="96.012" y="320.013" width="96" height="16"/>
	</g>
</g>
<g>
	<g>
		<rect x="96.012" y="352.013" width="96" height="16"/>
	</g>
</g>
<g>
	<g>
		<rect x="208.012" y="320.013" width="16" height="16"/>
	</g>
</g>
<g>
	<g>
		<rect x="240.012" y="352.013" width="16" height="16"/>
	</g>
</g>
<g>
	<g>
		<rect x="272.012" y="320.013" width="16" height="16"/>
	</g>
</g>
<g>
	<g>
		<circle cx="248.012" cy="328.013" r="8"/>
	</g>
</g>
<g>
	<g>
		<circle cx="280.012" cy="360.013" r="8"/>
	</g>
</g>
<g>
	<g>
		<circle cx="376.012" cy="344.013" r="8"/>
	</g>
</g>
<g>
	<g>
		<circle cx="216.012" cy="360.013" r="8"/>
	</g>
</g>
<g>
	<g>
		<path d="M280.012,424.013c0-4.418-3.582-8-8-8h-24v-16h160c4.418,0,8-3.582,8-8v-96c0-4.418-3.582-8-8-8h-336
			c-4.418,0-8,3.582-8,8v40H46.54c-2.42-6.776-7.753-12.108-14.528-14.528V216.013h32v40c0,4.418,3.582,8,8,8h336
			c4.418,0,8-3.582,8-8v-40h40c4.418,0,8-3.582,8-8v-49.472c12.442-4.335,19.014-17.935,14.68-30.376
			c-2.396-6.877-7.802-12.284-14.68-14.68V72.013c0-4.418-3.582-8-8-8h-40v-40c0-4.418-3.582-8-8-8h-336c-4.418,0-8,3.582-8,8v96
			c0,4.418,3.582,8,8,8h336c4.418,0,8-3.582,8-8v-40h32v33.472c-12.442,4.335-19.014,17.935-14.68,30.376
			c2.396,6.877,7.802,12.284,14.68,14.68v41.472h-32v-40c0-4.418-3.582-8-8-8h-336c-4.418,0-8,3.582-8,8v40h-40
			c-4.418,0-8,3.582-8,8v113.472c-12.476,4.384-19.036,18.052-14.652,30.528c4.384,12.476,18.052,19.036,30.528,14.652
			c6.854-2.408,12.243-7.798,14.652-14.652h17.472v40c0,4.418,3.582,8,8,8h160v16h-24c-4.418,0-8,3.582-8,8v8h-200v16h200v8
			c0,4.418,3.582,8,8,8h64c4.418,0,8-3.582,8-8v-8h200v-16h-200V424.013z M400.012,112.013h-320v-80h320V112.013z M456.012,128.013
			c4.418,0,8,3.582,8,8s-3.582,8-8,8s-8-3.582-8-8S451.594,128.013,456.012,128.013z M80.012,168.013h320v80h-320V168.013z
			 M24.012,352.013c-4.418,0-8-3.582-8-8s3.582-8,8-8s8,3.582,8,8S28.431,352.013,24.012,352.013z M80.012,384.013v-80h320v80
			H80.012z M264.012,448.013h-48v-16h48V448.013z"/>
	</g>
</g>
<g>
</g>
<g>
</g>
<g>
</g>
<g>
</g>
<g>
</g>
<g>
</g>
<g>
</g>
<g>
</g>
<g>
</g>
<g>
</g>
<g>
</g>
<g>
</g>
<g>
</g>
<g>
</g>
<g>
</g>
</svg>
