<svg viewBox="0 0 512 512.001" xmlns="http://www.w3.org/2000/svg"><path d="m337 458c-2.628906 0-5.210938 1.070312-7.070312 2.929688-1.859376 1.859374-2.929688 4.441406-2.929688 7.070312s1.070312 5.210938 2.929688 7.070312c1.859374 1.859376 4.441406 2.929688 7.070312 2.929688s5.210938-1.070312 7.070312-2.929688c1.859376-1.859374 2.929688-4.441406 2.929688-7.070312s-1.070312-5.210938-2.929688-7.070312c-1.859374-1.859376-4.441406-2.929688-7.070312-2.929688zm0 0"/><path d="m462 0h-412c-27.570312 0-50 22.429688-50 50v378c0 27.570312 22.429688 50 50 50h242.5c5.523438 0 10-4.476562 10-10s-4.476562-10-10-10h-242.5c-16.542969 0-30-13.457031-30-30v-320h472v320c0 2.394531-.289062 4.75-.835938 7.035156l-25.425781-25.425781 12.167969-12.167969c2.5-2.503906 3.496094-6.140625 2.609375-9.570312-.882813-3.425782-3.515625-6.128906-6.914063-7.109375l-15.601562-4.492188v-38.269531c0-5.523438-4.476562-10-10-10h-384c-5.523438 0-10 4.476562-10 10v64c0 5.523438 4.476562 10 10 10h299.023438l17.738281 61.601562c.980469 3.398438 3.683593 6.03125 7.109375 6.914063 3.429687.882813 7.066406-.109375 9.570312-2.613281l12.167969-12.164063 43.335937 43.332031c1.875 1.875 4.417969 2.929688 7.070313 2.929688s5.195313-1.054688 7.070313-2.929688l41.984374-41.980468c1.875-1.875 2.929688-4.421875 2.929688-7.074219s-1.054688-5.195313-2.929688-7.070313l-2.425781-2.425781c3.515625-6.949219 5.355469-14.617187 5.355469-22.519531v-378c0-27.570312-22.429688-50-50-50zm-24 370.507812-77.40625-22.289062c-.332031-.097656-.667969-.15625-1.003906-.21875h78.410156zm-192-22.507812v44h-76v-44zm-172 0h76v44h-76zm192 44v-44h90.089844c-1.984375.351562-3.859375 1.277344-5.335938 2.753906-2.570312 2.574219-3.542968 6.34375-2.535156 9.839844l9.042969 31.40625zm194.015625 95.855469-43.335937-43.332031c-1.953126-1.953126-4.511719-2.929688-7.070313-2.929688s-5.121094.976562-7.070313 2.929688l-7.25 7.25-22.847656-79.332032 72.105469 20.765625c.484375.179688.980469.328125 1.492187.429688l5.734376 1.652343-7.25 7.25c-1.875 1.875-2.929688 4.417969-2.929688 7.070313s1.054688 5.195313 2.929688 7.070313l43.332031 43.335937zm-440.015625-399.855469v-38c0-16.542969 13.457031-30 30-30h412c16.542969 0 30 13.457031 30 30v38zm0 0"/><path d="m62.4375 44c-5.523438 0-10 4.476562-10 10s4.476562 10 10 10h.09375c5.523438 0 9.953125-4.476562 9.953125-10s-4.523437-10-10.046875-10zm0 0"/><path d="m107.941406 44c-5.523437 0-10 4.476562-10 10s4.476563 10 10 10h.09375c5.523438 0 9.953125-4.476562 9.953125-10s-4.523437-10-10.046875-10zm0 0"/><path d="m153.449219 44c-5.523438 0-10 4.476562-10 10s4.476562 10 10 10h.089843c5.523438 0 9.957032-4.476562 9.957032-10s-4.527344-10-10.046875-10zm0 0"/><path d="m449 44h-217.242188c-5.523437 0-10 4.476562-10 10s4.476563 10 10 10h217.242188c5.523438 0 10-4.476562 10-10s-4.476562-10-10-10zm0 0"/><path d="m64 308h192.128906c5.523438 0 10-4.476562 10-10v-144c0-5.523438-4.476562-10-10-10h-192.128906c-5.523438 0-10 4.476562-10 10v144c0 5.523438 4.476562 10 10 10zm10-144h172.128906v124h-172.128906zm0 0"/><path d="m194.28125 210.054688-40.117188-25.714844c-5.832031-3.738282-13.230468-3.996094-19.308593-.671875s-9.855469 9.691406-9.855469 16.621093v51.425782c0 6.925781 3.777344 13.292968 9.855469 16.617187 2.839843 1.554688 5.964843 2.324219 9.085937 2.324219 3.5625 0 7.117188-1.003906 10.222656-2.996094l40.117188-25.710937c5.460938-3.5 8.71875-9.460938 8.71875-15.949219 0-6.484375-3.257812-12.445312-8.71875-15.945312zm-49.28125 39.722656v-47.554688l37.097656 23.777344zm0 0"/><path d="m304.128906 212h48c5.523438 0 10-4.476562 10-10v-48c0-5.523438-4.476562-10-10-10h-48c-5.523437 0-10 4.476562-10 10v48c0 5.523438 4.476563 10 10 10zm10-48h28v28h-28zm0 0"/><path d="m400.128906 212h48c5.523438 0 10-4.476562 10-10v-48c0-5.523438-4.476562-10-10-10h-48c-5.523437 0-10 4.476562-10 10v48c0 5.523438 4.476563 10 10 10zm10-48h28v28h-28zm0 0"/><path d="m294.128906 298c0 5.523438 4.476563 10 10 10h48c5.523438 0 10-4.476562 10-10v-48c0-5.523438-4.476562-10-10-10h-48c-5.523437 0-10 4.476562-10 10zm20-38h28v28h-28zm0 0"/><path d="m390.128906 298c0 5.523438 4.476563 10 10 10h48c5.523438 0 10-4.476562 10-10v-48c0-5.523438-4.476562-10-10-10h-48c-5.523437 0-10 4.476562-10 10zm20-38h28v28h-28zm0 0"/></svg>