<svg viewBox="0 0 512 512" xmlns="http://www.w3.org/2000/svg"><path d="m293.894531 36h-75.789062c-5.519531 0-10 4.476562-10 10s4.480469 10 10 10h75.789062c5.523438 0 10-4.476562 10-10s-4.476562-10-10-10zm0 0"/><path d="m416 301c-2.628906 0-5.210938 1.070312-7.070312 2.929688-1.859376 1.859374-2.929688 4.441406-2.929688 7.070312s1.070312 5.210938 2.929688 7.070312c1.859374 1.859376 4.441406 2.929688 7.070312 2.929688s5.210938-1.070312 7.070312-2.929688c1.859376-1.859374 2.929688-4.441406 2.929688-7.070312s-1.070312-5.210938-2.929688-7.070312c-1.859374-1.859376-4.441406-2.929688-7.070312-2.929688zm0 0"/><path d="m384 0h-256c-23.160156 0-42 18.839844-42 42v428c0 23.160156 18.839844 42 42 42h256c23.160156 0 42-18.839844 42-42v-116c0-5.523438-4.476562-10-10-10s-10 4.476562-10 10v66h-300v-328h300v170c0 5.523438 4.476562 10 10 10s10-4.476562 10-10v-220c0-23.160156-18.839844-42-42-42zm22 440v30c0 12.132812-9.867188 22-22 22h-256c-12.132812 0-22-9.867188-22-22v-30zm-300-368v-30c0-12.132812 9.867188-22 22-22h256c12.132812 0 22 9.867188 22 22v30zm0 0"/><path d="m256 473.238281c2.628906 0 5.210938-1.058593 7.070312-2.929687 1.859376-1.859375 2.929688-4.4375 2.929688-7.070313 0-2.628906-1.070312-5.207031-2.929688-7.066406-1.859374-1.863281-4.441406-2.933594-7.070312-2.933594s-5.210938 1.070313-7.070312 2.933594c-1.859376 1.867187-2.929688 4.4375-2.929688 7.066406 0 2.632813 1.070312 5.210938 2.929688 7.070313 1.859374 1.871094 4.441406 2.929687 7.070312 2.929687zm0 0"/><path d="m234.140625 318.140625c4.894531 0 9.777344-1.378906 14.046875-4.117187l71.933594-46.105469c7.503906-4.808594 11.984375-13.003907 11.984375-21.914063 0-8.917968-4.480469-17.109375-11.984375-21.921875l-71.933594-46.105469c-8.015625-5.136718-18.183594-5.492187-26.539062-.921874-8.351563 4.566406-13.542969 13.320312-13.542969 22.839843v92.210938c0 9.523437 5.191406 18.277343 13.542969 22.84375 3.902343 2.132812 8.203124 3.191406 12.492187 3.191406zm-6.035156-118.246094c0-3.230469 2.195312-4.777343 3.140625-5.292969.542968-.300781 1.609375-.765624 2.9375-.765624.964844 0 2.066406.246093 3.210937.980468l71.933594 46.105469c2.507813 1.605469 2.777344 4.085937 2.777344 5.078125s-.273438 3.472656-2.777344 5.082031l-71.933594 46.105469c-2.71875 1.742188-5.207031.726562-6.148437.214844-.945313-.519532-3.140625-2.066406-3.140625-5.296875zm0 0"/><path d="m50 218.25c-5.523438 0-10 4.476562-10 10v40.664062c0 5.523438 4.476562 10 10 10s10-4.476562 10-10v-40.664062c0-5.523438-4.476562-10-10-10zm0 0"/><path d="m10 188.300781c-5.523438 0-10 4.476563-10 10v115.398438c0 5.519531 4.476562 10 10 10s10-4.480469 10-10v-115.398438c0-5.523437-4.476562-10-10-10zm0 0"/><path d="m10 147.949219c-2.628906 0-5.210938 1.0625-7.070312 2.921875-1.859376 1.859375-2.929688 4.4375-2.929688 7.078125 0 2.628906 1.070312 5.199219 2.929688 7.0625 1.859374 1.867187 4.441406 2.929687 7.070312 2.929687s5.210938-1.0625 7.070312-2.929687c1.859376-1.863281 2.929688-4.433594 2.929688-7.0625 0-2.640625-1.070312-5.21875-2.929688-7.078125-1.859374-1.859375-4.441406-2.921875-7.070312-2.921875zm0 0"/><path d="m462 218.25c-5.523438 0-10 4.476562-10 10v40.664062c0 5.523438 4.476562 10 10 10s10-4.476562 10-10v-40.664062c0-5.523438-4.476562-10-10-10zm0 0"/><path d="m502 188.300781c-5.523438 0-10 4.476563-10 10v115.398438c0 5.519531 4.476562 10 10 10s10-4.480469 10-10v-115.398438c0-5.523437-4.476562-10-10-10zm0 0"/><path d="m178.332031 402.667969c5.523438 0 10-4.480469 10-10v-2.667969h171.667969c5.523438 0 10-4.476562 10-10s-4.476562-10-10-10h-171.667969v-2.667969c0-5.519531-4.476562-10-10-10-5.519531 0-10 4.480469-10 10v2.667969h-16.332031c-5.523438 0-10 4.476562-10 10s4.476562 10 10 10h16.332031v2.667969c0 5.519531 4.480469 10 10 10zm0 0"/></svg>