<svg height="480pt" viewBox="0 0 480 480" width="480pt" xmlns="http://www.w3.org/2000/svg"><path d="m472 440h-160v-16c0-4.417969-3.582031-8-8-8h-32v-24c0-4.417969-3.582031-8-8-8h-16v-16h128c4.417969 0 8-3.582031 8-8v-128c0-4.417969-3.582031-8-8-8h-272c-4.417969 0-8 3.582031-8 8v128c0 4.417969 3.582031 8 8 8h128v16h-16c-4.417969 0-8 3.582031-8 8v24h-32c-4.417969 0-8 3.582031-8 8v16h-160c-4.417969 0-8 3.582031-8 8s3.582031 8 8 8h160v16c0 4.417969 3.582031 8 8 8h128c4.417969 0 8-3.582031 8-8v-16h160c4.417969 0 8-3.582031 8-8s-3.582031-8-8-8zm-360-200h256v48h-256zm0 64h256v48h-256zm184 160h-112v-32h32c4.417969 0 8-3.582031 8-8v-24h32v24c0 4.417969 3.582031 8 8 8h32zm0 0"/><path d="m160 328c0 8.835938-7.164062 16-16 16s-16-7.164062-16-16 7.164062-16 16-16 16 7.164062 16 16zm0 0"/><path d="m352 328c0-4.417969-3.582031-8-8-8h-160c-4.417969 0-8 3.582031-8 8s3.582031 8 8 8h160c4.417969 0 8-3.582031 8-8zm0 0"/><path d="m456 0h-432c-13.253906 0-24 10.746094-24 24v296c0 13.253906 10.746094 24 24 24h48c4.417969 0 8-3.582031 8-8s-3.582031-8-8-8h-48c-4.417969 0-8-3.582031-8-8v-208h448v208c0 4.417969-3.582031 8-8 8h-48.625c-4.417969 0-8 3.582031-8 8s3.582031 8 8 8h48.625c13.253906 0 24-10.746094 24-24v-296c0-13.253906-10.746094-24-24-24zm-440 96v-72c0-4.417969 3.582031-8 8-8h432c4.417969 0 8 3.582031 8 8v72zm0 0"/><path d="m56 32c-13.253906 0-24 10.746094-24 24s10.746094 24 24 24 24-10.746094 24-24-10.746094-24-24-24zm0 32c-4.417969 0-8-3.582031-8-8s3.582031-8 8-8 8 3.582031 8 8-3.582031 8-8 8zm0 0"/><path d="m120 32c-13.253906 0-24 10.746094-24 24s10.746094 24 24 24 24-10.746094 24-24-10.746094-24-24-24zm0 32c-4.417969 0-8-3.582031-8-8s3.582031-8 8-8 8 3.582031 8 8-3.582031 8-8 8zm0 0"/><path d="m184 32c-13.253906 0-24 10.746094-24 24s10.746094 24 24 24 24-10.746094 24-24-10.746094-24-24-24zm0 32c-4.417969 0-8-3.582031-8-8s3.582031-8 8-8 8 3.582031 8 8-3.582031 8-8 8zm0 0"/><path d="m160 264c0 8.835938-7.164062 16-16 16s-16-7.164062-16-16 7.164062-16 16-16 16 7.164062 16 16zm0 0"/><path d="m344 256h-160c-4.417969 0-8 3.582031-8 8s3.582031 8 8 8h160c4.417969 0 8-3.582031 8-8s-3.582031-8-8-8zm0 0"/><path d="m432 200v-64c0-4.417969-3.582031-8-8-8h-368c-4.417969 0-8 3.582031-8 8v64c0 4.417969 3.582031 8 8 8h368c4.417969 0 8-3.582031 8-8zm-16-8h-352v-48h352zm0 0"/></svg>